<?xml version="1.0" encoding="UTF-8"?><svg xmlns="http://www.w3.org/2000/svg" viewBox="0 0 77.65 77.07"><defs><style>.cls-1{fill:#fff;}</style></defs><path class="cls-1" d="M62.9,77.07H14.75c-8.14,0-14.75-6.62-14.75-14.76V14.74C0,6.61,6.62,0,14.75,0H62.9c8.14,0,14.76,6.61,14.76,14.74V62.32c0,8.14-6.62,14.76-14.76,14.76ZM14.75,2C7.72,2,2,7.72,2,14.74V62.32c0,7.03,5.72,12.76,12.75,12.76H62.9c7.03,0,12.76-5.72,12.76-12.76V14.74c0-7.03-5.72-12.74-12.76-12.74H14.75Z"/><path class="cls-1" d="M38.26,62.15c-.94,0-1.83-.5-2.33-1.3-.14-.18-.21-.32-.23-.36l-4.83-7.85h-14.57c-6.14,0-11.13-5.01-11.13-11.17V17.33c0-6.16,4.99-11.17,11.13-11.17H60.21c6.14,0,11.14,5.01,11.14,11.17v24.13c0,6.16-5,11.17-11.14,11.17h-14.56l-4.84,7.89c-.04,.09-.12,.21-.24,.36-.51,.79-1.38,1.27-2.3,1.27ZM16.31,8.16c-5.04,0-9.13,4.12-9.13,9.17v24.13c0,5.06,4.1,9.17,9.13,9.17h15.68l5.45,8.88c.04,.07,.06,.1,.09,.14l.08,.12c.27,.47,.99,.48,1.28,0l.18-.26,5.45-8.88h15.68c5.04,0,9.14-4.11,9.14-9.17V17.33c0-5.06-4.1-9.17-9.14-9.17H16.31Z"/><path class="cls-1" d="M20.43,24.84s-1.75,0-3.35,1.55v-6.23h-3.92v16.36h3.97v-1.28s.94,1.7,3.3,1.7c0,0,5.53-.21,5.53-6.12,0,0-.2-5.98-5.53-5.98m-.87,8.63c-1.39,0-2.52-1.13-2.52-2.52s1.13-2.52,2.52-2.52,2.52,1.13,2.52,2.52-1.13,2.52-2.52,2.52"/><path class="cls-1" d="M27.23,19.78v3.8s1.79-.08,1.79,3.26v9.68h3.79v-10.58s.16-6.16-5.58-6.16"/><path class="cls-1" d="M42.06,24.9s-6.49,0-6.49,6.06c0,0-.21,5.98,6.49,5.98,0,0,6.64-.01,6.64-5.98,0,0,.22-6.06-6.64-6.06m0,8.58c-1.4,0-2.52-1.13-2.52-2.52s1.13-2.52,2.52-2.52,2.52,1.13,2.52,2.52-1.13,2.52-2.52,2.52"/><path class="cls-1" d="M59.54,25.28v1.11s-1.13-1.5-3.3-1.5c0,0-5.56-.24-5.56,6.02,0,0-.06,5.83,5.4,5.83,0,0,2.23,.09,3.45-1.5v.92s.28,2.87-2.5,2.87h-.95v3.48h1.53s5.74,.06,5.74-6.13v-11.1h-3.82Zm-2.35,8.19c-1.39,0-2.53-1.13-2.53-2.52s1.13-2.52,2.53-2.52,2.52,1.13,2.52,2.52-1.13,2.52-2.52,2.52"/></svg>