<?xml version="1.0" encoding="UTF-8"?><svg xmlns="http://www.w3.org/2000/svg" viewBox="0 0 79.36 79.36"><defs><style>.cls-1{fill:#fff;}</style></defs><path class="cls-1" d="M21.79,68.08c-.5,0-.96-.19-1.31-.54-.5-.5-.68-1.25-.46-1.92l2.57-9.61c-8.53-4.57-13.6-12.11-13.6-20.31,0-13.48,13.76-24.44,30.67-24.44s30.68,10.96,30.68,24.44-13.76,24.44-30.68,24.44c-1.66,0-3.38-.12-5.1-.35l-11.71,7.91c-.29,.23-.68,.37-1.07,.37ZM39.68,13.27c-15.81,0-28.67,10.07-28.67,22.44,0,7.65,4.94,14.72,13.22,18.9l.73,.37-2.92,10.89,12.06-8.15,.38,.06c1.76,.25,3.51,.38,5.2,.38,15.81,0,28.68-10.07,28.68-22.44s-12.86-22.44-28.68-22.44Z"/><path class="cls-1" d="M20.42,32h-3.23c-.44,0-.83-.11-1.15-.31-.32-.2-.52-.49-.59-.87-.02-.1-.04-.21-.05-.33,0-.47,.17-.84,.51-1.1,.33-.26,.76-.4,1.27-.4h9.88c.45,0,.83,.1,1.14,.31,.32,.2,.52,.49,.6,.87,.01,.1,.03,.21,.02,.32,0,.49-.17,.85-.49,1.12-.33,.26-.75,.39-1.26,.39h-3.23v11.13c0,.53-.16,.97-.47,1.29-.3,.33-.73,.49-1.25,.49-.43,0-.79-.12-1.09-.35-.3-.24-.49-.56-.58-.97-.03-.15-.04-.3-.03-.45v-11.13Z"/><path class="cls-1" d="M29.65,29.81c.14-.39,.35-.67,.62-.83,.27-.17,.62-.25,1.05-.25h.82c.44,0,.82,.09,1.12,.27,.3,.18,.54,.52,.71,1.03l4.12,11.96c.13,.37,.22,.69,.28,.95,.03,.18,.05,.31,.06,.41,0,.44-.17,.8-.48,1.1-.31,.31-.69,.45-1.14,.45-.79,0-1.3-.33-1.53-.97l-.88-2.6h-5.5l-.89,2.6c-.21,.65-.72,.97-1.53,.97-.4,0-.74-.1-1.01-.31-.27-.21-.45-.51-.52-.88-.02-.11-.03-.23-.03-.36,0-.17,.02-.38,.09-.63,.06-.24,.14-.49,.23-.73l4.42-12.17Zm2.07,2.77h-.04l-2.01,6.27h4l-1.94-6.27Z"/><path class="cls-1" d="M38.95,30.49c0-.53,.16-.96,.47-1.29,.31-.32,.73-.49,1.25-.49,.43,0,.8,.12,1.09,.36,.29,.24,.49,.56,.57,.97,.03,.15,.04,.3,.03,.45v11.13h5.71c.46,0,.84,.1,1.15,.3,.31,.21,.51,.5,.58,.87,.02,.1,.04,.21,.05,.33,0,.47-.17,.84-.5,1.1-.33,.26-.76,.39-1.27,.39h-7.13c-.53,0-.96-.1-1.29-.33-.33-.21-.54-.56-.65-1.05-.04-.21-.06-.44-.07-.7v-12.05Z"/><path class="cls-1" d="M50.2,30.49c0-.53,.15-.96,.46-1.29,.31-.32,.73-.49,1.25-.49,.43,0,.8,.12,1.09,.36,.3,.24,.49,.56,.57,.97,.03,.15,.04,.3,.03,.45v5.18l5.38-6.17c.24-.26,.45-.46,.65-.59,.2-.13,.43-.19,.71-.19,.38,0,.72,.11,1.02,.32,.31,.2,.49,.48,.57,.83,0,.01,.01,.06,.02,.13,0,.05,0,.1,0,.14,0,.25-.05,.46-.16,.65-.11,.19-.24,.38-.41,.57l-3.51,3.83,4.15,6.58,.13,.2c.28,.45,.45,.77,.49,.99,0,.01,.01,.05,.03,.11,0,.06,0,.09,0,.11,0,.61-.17,1.05-.51,1.31-.34,.26-.76,.4-1.24,.4-.35,0-.63-.06-.85-.18-.22-.14-.45-.38-.67-.74l-3.94-6.34-1.88,1.96,.02,3.54c0,.53-.16,.97-.47,1.29-.31,.33-.73,.49-1.25,.49-.43,0-.8-.12-1.1-.35-.3-.24-.49-.56-.57-.97-.03-.15-.03-.3-.03-.45v-12.63Z"/><path class="cls-1" d="M63.75,78.21H15.61c-8.14,0-14.75-6.62-14.75-14.76V15.89C.85,7.76,7.47,1.14,15.61,1.14H63.75c8.14,0,14.76,6.61,14.76,14.74V63.46c0,8.14-6.62,14.76-14.76,14.76ZM15.61,3.14C8.57,3.14,2.85,8.86,2.85,15.89V63.46c0,7.03,5.72,12.76,12.75,12.76H63.75c7.03,0,12.76-5.72,12.76-12.76V15.89c0-7.03-5.72-12.74-12.76-12.74H15.61Z"/></svg>