<?xml version="1.0" encoding="UTF-8"?><svg xmlns="http://www.w3.org/2000/svg" viewBox="0 0 78.74 78.16"><defs><style>.cls-1{fill:#fff;}</style></defs><path class="cls-1" d="M39.36,55.68h0c-6.54,0-14.47-.32-16.15-.57-3.46-.56-5.23-2.25-6.13-5.86-.31-1.25-.7-7.55-.7-9.9v-.52c0-2.36,.39-8.66,.7-9.9,.9-3.61,2.67-5.31,6.12-5.86,1.71-.25,9.66-.57,16.18-.57s14.47,.32,16.17,.57h.01c3.44,.55,5.22,2.25,6.12,5.87,.31,1.25,.7,7.55,.7,9.9v.52c0,2.35-.38,8.64-.7,9.9-.91,3.61-2.68,5.3-6.12,5.86-1.71,.25-9.67,.58-16.19,.58Zm.01-31.19c-6.27,0-14.25,.31-15.87,.55-2.61,.42-3.78,1.56-4.48,4.37-.23,.92-.64,6.9-.64,9.41v.52c0,2.51,.41,8.49,.64,9.42,.7,2.81,1.87,3.95,4.49,4.37,1.59,.24,9.58,.55,15.88,.55h0c6.27,0,14.24-.31,15.86-.55,2.64-.42,3.77-1.53,4.49-4.37,.23-.93,.64-6.92,.64-9.42v-.52c0-2.5-.41-8.48-.64-9.41-.71-2.84-1.85-3.95-4.49-4.37-1.63-.24-9.61-.55-15.87-.55Z"/><polygon class="cls-1" points="34.1 33.44 44.64 38.95 34.1 44.72 34.1 33.44"/><path class="cls-1" d="M63.44,77.62H15.3c-8.14,0-14.75-6.62-14.75-14.76V15.29C.55,7.16,7.16,.54,15.3,.54H63.44c8.14,0,14.76,6.61,14.76,14.74V62.86c0,8.14-6.62,14.76-14.76,14.76ZM15.3,2.54C8.27,2.54,2.55,8.26,2.55,15.29V62.86c0,7.03,5.72,12.76,12.75,12.76H63.44c7.03,0,12.76-5.72,12.76-12.76V15.29c0-7.03-5.72-12.74-12.76-12.74H15.3Z"/></svg>